<svg id="9d9d6abe-c7ba-463e-9531-fe9bb4e54667" data-name="Layer 1" xmlns="http://www.w3.org/2000/svg" width="142" height="118" viewBox="0 0 142 118">
  <title>LV_logo</title>
  <g>
    <path d="M70.99977,96.45569h0Z" style="fill: #005551"/>
    <g>
      <polygon points="93.889 107.357 97.275 107.357 97.275 117.726 99.616 117.726 99.616 107.357 103.036 107.357 103.036 105.082 93.889 105.082 93.889 107.357" style="fill: #005551"/>
      <polygon points="113.968 107.357 117.354 107.357 117.354 117.726 119.695 117.726 119.695 107.357 123.115 107.357 123.115 105.082 113.968 105.082 113.968 107.357" style="fill: #005551"/>
      <polygon points="62.886 107.357 62.886 105.082 54.54 105.082 54.54 117.726 62.886 117.726 62.886 115.449 56.881 115.449 56.881 112.542 62.03 112.542 62.03 110.266 56.881 110.266 56.881 107.357 62.886 107.357" style="fill: #005551"/>
      <polygon points="133.47 107.357 133.47 105.082 125.123 105.082 125.123 117.726 133.47 117.726 133.47 115.449 127.465 115.449 127.465 112.542 132.614 112.542 132.614 110.266 127.465 110.266 127.465 107.357 133.47 107.357" style="fill: #005551"/>
      <polygon points="32.865 105.082 30.523 105.082 30.523 114.321 25.259 105.082 22.626 105.082 22.626 117.726 24.968 117.726 24.968 108.52 30.267 117.726 32.865 117.726 32.865 105.082" style="fill: #005551"/>
      <path d="M109.96324,105.12535h-3.08369l-4.28539,12.6006h2.284l0.70193-2.06521h5.60837l0.68783,2.06521h2.27927Zm-3.64692,8.37091,2.10013-6.17443,2.05266,6.17443h-4.15279Z" style="fill: #005551"/>
      <rect x="105.80163" y="101.00982" width="5.14528" height="2.0572" style="fill: #005551"/>
      <path d="M87.005,114.094a3.37368,3.37368,0,0,0-2.91867-3.54975l-2.18525-.53877c-1.00282-.2682-1.86318-0.6804-1.86318-1.57678,0-1.14718,1.00328-1.61348,2.04231-1.61348a2.79449,2.79449,0,0,1,2.65915,1.33775l1.56323-1.5636a4.48339,4.48339,0,0,0-4.02493-1.78147c-2.472,0-4.567,1.39845-4.567,3.80009,0,2.25907,1.36061,3.02934,3.06206,3.45894l2.14951,0.52c0.985,0.288,1.75458.71757,1.75458,1.66853,0,1.182-1.2172,1.68359-2.50635,1.68359a3.20147,3.20147,0,0,1-2.8458-1.46573l-1.6897,1.69112A5.563,5.563,0,0,0,82.09808,118c2.81194,0,4.90692-1.5589,4.90692-3.906" style="fill: #005551"/>
      <path d="M75.17432,108.90751c0-2.45246-1.63234-3.80338-4.59708-3.80338H65.97638v12.64343h2.3357v-5.12089h0.92336l0.03479,0.04423,3.71321,5.07666h2.81571l-4.00424-5.21829c2.126-.35526,3.37941-1.68407,3.37941-3.62175m-6.86225,1.71229v-3.38036h2.21814c1.48284,0,2.2346.56135,2.2346,1.66806,0,1.13635-.75176,1.71229-2.2346,1.71229H68.31207Z" style="fill: #005551"/>
      <path d="M19.4504,112.682c0,3.50741-2.2365,5.29264-5.46029,5.29264-3.22332,0-5.45981-1.78523-5.45981-5.29264v-7.62181h2.535V112.555a2.6661,2.6661,0,0,0,2.92479,2.9997,2.66591,2.66591,0,0,0,2.92479-2.9997v-7.49477h2.5355V112.682Z" style="fill: #005551"/>
      <rect x="36.04084" y="105.05976" width="2.52656" height="12.68812" style="fill: #005551"/>
      <polygon points="47.849 117.748 44.779 117.748 40.016 105.06 42.706 105.06 46.337 115.184 49.986 105.06 52.612 105.06 47.849 117.748" style="fill: #005551"/>
      <rect x="89.37896" y="105.05976" width="2.52656" height="12.68812" style="fill: #005551"/>
    </g>
    <g>
      <polygon points="56.612 86.086 59.998 86.086 59.998 96.456 62.339 96.456 62.339 86.086 65.76 86.086 65.76 83.811 56.612 83.811 56.612 86.086" style="fill: #005551"/>
      <polygon points="76.525 86.086 76.525 83.811 68.178 83.811 68.178 96.456 76.525 96.456 76.525 94.178 70.52 94.178 70.52 91.271 75.668 91.271 75.668 88.996 70.52 88.996 70.52 86.086 76.525 86.086" style="fill: #005551"/>
      <polygon points="88.878 96.418 88.878 83.774 86.536 83.774 86.536 88.838 81.433 88.838 81.433 83.774 79.091 83.774 79.091 96.418 81.433 96.418 81.433 91.114 86.536 91.114 86.536 96.418 88.878 96.418" style="fill: #005551"/>
      <polygon points="102.129 83.774 99.787 83.774 99.787 93.013 94.523 83.774 91.89 83.774 91.89 96.419 94.232 96.419 94.232 87.212 99.531 96.419 102.129 96.419 102.129 83.774" style="fill: #005551"/>
      <rect x="105.12325" y="83.77392" width="2.34133" height="12.64436" style="fill: #005551"/>
      <polygon points="127.278 83.848 123.346 89.323 123.346 83.848 121.003 83.848 121.003 96.492 123.346 96.492 123.346 90.949 127.278 96.492 130.081 96.492 125.311 90.058 130.081 83.848 127.278 83.848" style="fill: #005551"/>
      <path d="M137.80771,83.89114H134.724l-4.28541,12.6006h2.284l0.70192-2.06521h5.60838l0.68783,2.06521H142ZM134.1608,92.262l2.10013-6.17443,2.05264,6.17443H134.1608Z" style="fill: #005551"/>
      <path d="M34.7992,83.85421L30.51381,96.45575h2.28257l0.70381-2.068h5.60932l0.68688,2.068h2.27786l-4.19-12.60154H34.7992Zm-0.56276,8.37184,2.09826-6.17537,2.05454,6.17537H34.23644Z" style="fill: #005551"/>
      <rect x="11.96278" y="83.8111" width="2.34274" height="12.64483" style="fill: #005551"/>
      <rect x="10.55141" y="79.79692" width="5.14623" height="2.05626" style="fill: #005551"/>
      <path d="M29.571,90.25425V89.17154H23.17745v2.16355h4.08793a4.23548,4.23548,0,1,1-.95863-3.92807l1.5261-1.52832A6.39253,6.39253,0,1,0,29.571,90.25425" style="fill: #005551"/>
      <path d="M52.41941,92.85672A3.37368,3.37368,0,0,0,49.50074,89.307l-2.18525-.53877c-1.00282-.2682-1.86318-0.6804-1.86318-1.57678,0-1.14718,1.00328-1.61348,2.04231-1.61348a2.79449,2.79449,0,0,1,2.65915,1.33775l1.56323-1.5636a4.4834,4.4834,0,0,0-4.02493-1.78147c-2.472,0-4.567,1.39845-4.567,3.80009,0,2.25907,1.36061,3.02934,3.06206,3.45894l2.14951,0.52c0.985,0.288,1.75458.71757,1.75458,1.66853,0,1.182-1.2172,1.68359-2.50635,1.68359a3.20147,3.20147,0,0,1-2.8458-1.46573l-1.6897,1.69112a5.563,5.563,0,0,0,4.46311,1.83558c2.81194,0,4.90692-1.5589,4.90692-3.906" style="fill: #005551"/>
      <path d="M116.10866,89.26909l-2.18665-.53736c-1.00189-.26914-1.86272-0.6804-1.86272-1.57678,0-1.14718,1.00423-1.61348,2.04325-1.61348a2.79081,2.79081,0,0,1,2.6582,1.33775l1.56465-1.56408a4.4865,4.4865,0,0,0-4.02681-1.781c-2.47108,0-4.56512,1.39751-4.56512,3.80008,0,2.25907,1.36014,3.0284,3.06206,3.45942l2.149,0.51995c0.98354,0.28656,1.75458.71758,1.75458,1.66572,0,1.18247-1.21815,1.68548-2.50635,1.68548a3.19976,3.19976,0,0,1-2.84673-1.4662l-1.68877,1.69112a5.56242,5.56242,0,0,0,4.46216,1.837c2.81287,0,4.90692-1.56126,4.90692-3.90831a3.37342,3.37342,0,0,0-2.91773-3.54929" style="fill: #005551"/>
      <path d="M9.19794,87.61584c0-2.45246-1.63234-3.80337-4.59708-3.80337H0V96.45588H2.3357V91.335H3.25906l0.03479,0.04423,3.71321,5.07666H9.82277L5.81854,91.23759c2.126-.35526,3.37941-1.68407,3.37941-3.62175M2.3357,89.32813V85.94777H4.55384c1.48284,0,2.2346.56135,2.2346,1.66806,0,1.13635-.75176,1.71229-2.2346,1.71229H2.3357Z" style="fill: #005551"/>
      <rect x="133.61837" y="79.79551" width="5.14527" height="2.05721" style="fill: #005551"/>
    </g>
    <g>
      <polygon points="58.863 10.022 60.632 10.022 60.632 0.187 57.626 0.187 57.626 1.863 58.863 1.863 58.863 10.022" style="fill: #005551"/>
      <path d="M62.49552,6.97389a3.27193,3.27193,0,0,0,6.54255.10633,2.65051,2.65051,0,0,0-1.42266-2.52868,2.28266,2.28266,0,0,0,.79738-1.85017A2.66022,2.66022,0,0,0,65.75268,0a2.61851,2.61851,0,0,0-2.606,2.74138,2.20471,2.20471,0,0,0,.79785,1.81016,2.61128,2.61128,0,0,0-1.449,2.42235m3.29714-5.24371a1.02189,1.02189,0,0,1,1.02444,1.0112,1.0364,1.0364,0,0,1-1.02444,1.038,1.05961,1.05961,0,0,1-1.05031-1.038,1.04553,1.04553,0,0,1,1.05031-1.0112M65.76633,5.51a1.51054,1.51054,0,0,1,1.50258,1.54339,1.50257,1.50257,0,0,1-3.0047,0A1.51016,1.51016,0,0,1,65.76633,5.51" style="fill: #005551"/>
      <path d="M73.57033,10.26052a3.42942,3.42942,0,0,0,3.39116-3.49989,3.2576,3.2576,0,0,0-.86365-2.34235,2.8593,2.8593,0,0,0-2.0348-.93166l-0.49272.04L75.765,0.18625H73.678L70.87168,4.47145a4.09116,4.09116,0,0,0-.71885,2.276,3.40612,3.40612,0,0,0,3.4175,3.51306m-0.02585-5.1369A1.69615,1.69615,0,0,1,75.1928,6.867,1.63723,1.63723,0,1,1,71.922,6.78745a1.62232,1.62232,0,0,1,1.62248-1.66384" style="fill: #005551"/>
      <path d="M81.19645,1.72985a1.37771,1.37771,0,0,1,1.41,1.43751,2.84456,2.84456,0,0,1-1.197,2.02284L78.01778,8.34471v1.677H84.3737v-1.677H80.49123l1.87493-1.67653,1.237-1.30481a3.41672,3.41672,0,0,0,.77057-2.116A3.23064,3.23064,0,1,0,77.91247,3.221v0.3595h1.76776a1.56607,1.56607,0,0,1,1.51623-1.85064" style="fill: #005551"/>
      <path d="M78.24782,55.08579L79.4072,51.186,77.02967,40.79689l9.14012-9.14731H74.93611L73.77579,26.5814a3.36237,3.36237,0,0,0,.76163-2.1146,3.5383,3.5383,0,0,0-7.07429,0,3.36105,3.36105,0,0,0,.76163,2.11413l-1.16033,5.06866H55.83077l9.14011,9.14825L62.59336,51.186l1.15938,3.89984,2.88764-12.61707,4.3592,4.36333,4.36061-4.36427Zm3.09308-21.43453L76.50216,38.4936,75.394,33.65126h5.94688Zm-15.843,4.84327-4.83874-4.84327h5.94735ZM71,22.9573a1.51022,1.51022,0,1,1-1.54867,1.5095A1.52956,1.52956,0,0,1,71,22.9573m-0.99342,4.80328a3.26658,3.26658,0,0,0,1.98732,0l0.89,3.889H69.11664Zm0.993,16.24022-3.83216-3.83536,1.49083-6.51417H73.3423l1.49037,6.51322Z" style="fill: #005551"/>
      <path d="M20.29917,63.25705H17.03965l2.3164-1.47656L28.21127,61.781V52.85529l7.21863,3.16956v10.63l4.13164-.00236,2.8016,2.80348H52.105l0.00283-6.19748h-5.567L45.6946,59.64659l2.33194-6.62144L39.92215,44.914l-8.53034.0033,6.8223-4.345,14.12742,3.18743v12.945L70.99976,67.07126,89.65847,56.70478v-12.945l14.12744-3.18743,6.82182,4.345-8.52986-.0033-8.10439,8.11118,2.33145,6.62144-0.84626,3.61188H89.89214L89.895,69.456h9.74191l2.80114-2.80348,4.13212,0.00236v-10.63l7.21863-3.16956V61.781l8.8552-.00047,2.31641,1.47656h-3.25955v6.19985h11.93045V55.03578h-9.86461V51.01643a4.759,4.759,0,0,0,1.52046.25927,4.70442,4.70442,0,0,0,3.567-7.76768l-0.00517-.00895c-0.70427-.855-5.6192-6.36124-5.6192-6.36124a5.59928,5.59928,0,0,1,3.07569-9.16988,0.87108,0.87108,0,0,1,1.04044.93213,0.89654,0.89654,0,0,1-.33993.70722l-0.01222.00518-0.023.02352a4.66841,4.66841,0,1,0,5.65869,7.40442l-0.0254-.01458a1.43089,1.43089,0,0,1-.34463.02681,1.79231,1.79231,0,0,1-1.30653-3.0171l0.0066-.01506a7.47636,7.47636,0,0,0,1.10107-1.30715,4.61118,4.61118,0,0,0-2.23274-6.51746,6.06684,6.06684,0,0,0-1.39116-.3402A7.6554,7.6554,0,0,0,121.42155,38.182c0.03716,0.06682,5.18432,5.84175,5.83264,6.63085l0.01177,0.01176,0.008,0.01035A2.63758,2.63758,0,1,1,123.029,47.932l-0.00987-.01269-6.3794-12.40721a7.13577,7.13577,0,0,0-1.095-9.04191,2.5064,2.5064,0,0,0,2.21018-2.4741h0.00092l0.01647-1.40362a0.99813,0.99813,0,0,0-1.00047-1.0093l-2.40718-.00378a0.49618,0.49618,0,1,1,0-.99236l4.6761-.00376a2.74841,2.74841,0,0,0,2.747-2.75031L121.785,14.742H110.69377a4.35858,4.35858,0,0,0-4.02117-6.02574,0.99856,0.99856,0,0,0-1.00047.98954c-0.00423.3929-.00659,0.89873-0.00659,1.46009,0,1.1467.008,2.52021,0.01082,3.5794-0.54678-.00424-1.34085.00847-1.34085,0.00847A12.62053,12.62053,0,0,0,92.96407,31.64992h-3.3056V14.76128H52.34153V31.64992H49.03594A12.62053,12.62053,0,0,0,37.6645,14.75376s-0.79408-.01271-1.34085-0.00847c0.00281-1.05919.0108-2.4327,0.0108-3.5794,0-.56135-0.00235-1.06719-0.007-1.46009a0.99847,0.99847,0,0,0-1-.98954A4.35855,4.35855,0,0,0,31.30625,14.742H20.215l-0.00283,3.091a2.74834,2.74834,0,0,0,2.7466,2.75031L27.63534,20.587a0.49618,0.49618,0,0,1,0,.99236l-2.40762.00378a0.99731,0.99731,0,0,0-1,1.0093l0.016,1.40362h0.00141a2.50639,2.50639,0,0,0,2.21015,2.4741,7.13571,7.13571,0,0,0-1.095,9.04191L18.98041,47.91933,18.971,47.932a2.63735,2.63735,0,1,1-4.24495-3.0971l0.00753-.01035,0.01221-.01176c0.64835-.7891,5.795-6.564,5.83264-6.63085a7.64742,7.64742,0,0,0-7.01505-12.32628,6.065,6.065,0,0,0-1.39163.3402,4.61031,4.61031,0,0,0-2.23226,6.51746,7.44863,7.44863,0,0,0,1.10109,1.30715l0.00659,0.01506a1.79267,1.79267,0,0,1-1.30655,3.0171A1.43083,1.43083,0,0,1,9.396,37.02585l-0.02585.01458A4.6681,4.6681,0,1,0,15.02883,29.636l-0.02257-.02352-0.0127-.00518a0.89947,0.89947,0,0,1-.33991-0.70722,0.87154,0.87154,0,0,1,1.0409-.93213,5.599,5.599,0,0,1,3.07524,9.16988s-4.91492,5.50628-5.61873,6.36124l-0.00517.00895a4.70442,4.70442,0,0,0,3.56653,7.76768,4.76192,4.76192,0,0,0,1.52093-.25927v4.01935H8.36873V69.45691H20.29917V63.25705Zm107.73689-31.849,0.06112-.03247a2.97257,2.97257,0,0,0,1.245-3.10415,2.60432,2.60432,0,0,1,.50071.37831,2.556,2.556,0,0,1-.17585,3.77374V32.424a3.153,3.153,0,0,0-1.418,2.27741,2.12182,2.12182,0,0,0,.30322,1.2267,2.59779,2.59779,0,0,1-.5162-4.52M113.78874,50.599l-9.284,4.07536v9.91429l-2.83546.00188-2.79643,2.79925H91.958V65.32461h5.13683l1.35213-5.77447-2.11143-5.95845-0.02633-.07341,6.53645-6.54192,10.94313,0.00046V50.599Zm7.91207-.69827v7.20162h9.8651V67.39028h-7.79925V65.32367h5.0428V63.25847L123.25,59.71577l-7.39683-.00141V45.80847l-9.23648-5.88221c1.84109-.423,3.44759-0.79428,4.55807-1.05966,0.76633-.1835,1.65256-0.40937,1.65256-0.40937a7.13674,7.13674,0,0,0,2.34227-1.28928Zm-14.031-38.95557a2.31739,2.31739,0,0,1,.66619.463,2.35515,2.35515,0,0,1,0,3.33143,2.4254,2.4254,0,0,1-.66619.4569c-0.00235-1.10154,0-4.25133,0-4.25133M107.27486,17.872a3.87437,3.87437,0,0,1,2.50259-1.12835h10.01787l-0.00706,1.08459V17.833a0.74983,0.74983,0,0,1-.74752.74863H119.0398l-4.73954.00234v0.00988a2.53525,2.53525,0,0,0-2.426,2.52727,2.39432,2.39432,0,0,0,.67843,1.70759,2.55784,2.55784,0,0,0,1.40054.69452,2.653,2.653,0,0,0,.34274.01883l1.46921-.00376-0.00376.44653a0.52138,0.52138,0,0,1-.52.51948h-0.00095c-0.00281,0-5.29384.00847-5.45651,0.00895a3.89463,3.89463,0,0,1-2.50917-6.64121m-2.79643.81545a5.78993,5.78993,0,0,0-.33851,1.94052,5.8917,5.8917,0,0,0,5.275,5.861,1.01336,1.01336,0,0,0,.205.02164c0.03855,0,.92384-0.00141,1.17113-0.00188a5.14751,5.14751,0,0,1,1.45839,10.02957,11.18419,11.18419,0,0,1-2.94829.46395,9.79273,9.79273,0,0,1-4.82276-18.31485M97.32,19.85158a10.56237,10.56237,0,0,1,6.4443-3.05568,11.79421,11.79421,0,0,0-3.16643,18.3586l-0.04138-.03482-2.3244.5209s-0.70757-.57313-0.91209-0.77781a10.62094,10.62094,0,0,1,0-15.01118M89.65847,33.581h4.19795a12.65523,12.65523,0,0,0,1.95392,2.59644l-6.15186,1.38527V33.581Zm0,6.03469,12.73345-2.85759a11.70193,11.70193,0,0,0,2.04936,1.1947l0.709,0.25927L89.65847,41.70914V39.6157ZM54.34436,16.74413H87.65564v38.742l-16.65541,9.224H70.99976l-16.65541-9.224v-38.742ZM15.057,33.52643a2.57929,2.57929,0,0,1-1.60931,2.40164,2.12535,2.12535,0,0,0,.30324-1.2267A3.15376,3.15376,0,0,0,12.33254,32.424V32.42349a2.557,2.557,0,0,1-.17583-3.77374,2.61765,2.61765,0,0,1,.50071-0.37831,2.97588,2.97588,0,0,0,1.24541,3.10415l0.06066,0.03247A2.59469,2.59469,0,0,1,15.057,33.52643M39.1544,46.97637l6.536,6.54192-0.02587.07341-2.11143,5.95845,1.35167,5.77447h5.13682v2.06521H43.12713L40.3307,64.59057l-2.83544-.00188V54.6744l-9.284-4.07536V46.97683Zm13.18713-5.26723L36.84974,38.21208l0.709-.25927a11.70205,11.70205,0,0,0,2.04937-1.1947L52.34153,39.6157v2.09344Zm0-8.12812v3.98172l-6.15234-1.38527A12.641,12.641,0,0,0,48.1436,33.581h4.19793ZM44.68,19.85158a10.62094,10.62094,0,0,1,0,15.01118c-0.20451.20468-.91209,0.77781-0.91209,0.77781l-2.3244-.5209-0.04136.03482a11.79132,11.79132,0,0,0-3.16644-18.3586A10.56356,10.56356,0,0,1,44.68,19.85158M33.66355,11.40821a2.3198,2.3198,0,0,1,.66667-0.463s0.00235,3.1498,0,4.25133a2.42818,2.42818,0,0,1-.66667-0.4569,2.35632,2.35632,0,0,1,0-3.33143m-7.425,12.5766-0.00423-.44653L27.7035,23.542a2.6494,2.6494,0,0,0,.34274-0.01883,2.55922,2.55922,0,0,0,1.401-.69452,2.39823,2.39823,0,0,0,.67842-1.70759,2.53523,2.53523,0,0,0-2.426-2.52727V18.58395l-4.73954-.00234H22.9588a0.74976,0.74976,0,0,1-.74707-0.74863V17.82827l-0.007-1.08459H32.22255a3.89238,3.89238,0,0,1-.00657,7.76956c-0.16267-.00047-5.4537-0.00895-5.45653-0.00895H26.758a0.521,0.521,0,0,1-.51952-0.51948m1.49413,4.02406a5.1205,5.1205,0,0,1,3.47627-1.50008c0.2473,0.00047,1.13258.00188,1.17113,0.00188a1.01322,1.01322,0,0,0,.205-0.02164,5.89243,5.89243,0,0,0,5.275-5.861,5.78993,5.78993,0,0,0-.33849-1.94052,9.79428,9.79428,0,0,1-4.82277,18.31485A11.18713,11.18713,0,0,1,29.75,36.53836a5.15194,5.15194,0,0,1-2.01739-8.52949m-9.4993,39.38141H10.43409V57.10239h9.86508V49.90077L26.83044,37.168a7.132,7.132,0,0,0,2.34227,1.28928s0.88623,0.22586,1.65257.40937c1.11049,0.26538,2.717.63664,4.55807,1.05966l-9.237,5.88221V59.71436l-7.39682.00141-5.55949,3.54271v2.06519h5.04327v2.06661Z" style="fill: #005551"/>
    </g>
  </g>
</svg>
